<svg
   xmlns:dc="http://purl.org/dc/elements/1.1/"
   xmlns:cc="http://creativecommons.org/ns#"
   xmlns:rdf="http://www.w3.org/1999/02/22-rdf-syntax-ns#"
   xmlns:svg="http://www.w3.org/2000/svg"
   xmlns="http://www.w3.org/2000/svg"
   xmlns:xlink="http://www.w3.org/1999/xlink"
   xmlns:sodipodi="http://sodipodi.sourceforge.net/DTD/sodipodi-0.dtd"
   xmlns:inkscape="http://www.inkscape.org/namespaces/inkscape"
   width="276.2"
   height="286.8"
   id="svg2"
   version="1.1"
   inkscape:version="0.48.3.1 r9886"
   sodipodi:docname="Bench-press-1.svg"
   inkscape:export-filename="/home/christian/Arbeitsfläche/Dropbox/Website/opentraining/cc_exercises/Bench-press-1.png"
   inkscape:export-xdpi="199.6"
   inkscape:export-ydpi="199.6"><defs
     id="defs4"><radialGradient
       gradientUnits="userSpaceOnUse"
       gradientTransform="matrix(1,0,0,0.9,-19.3,-7.9)"
       r="209.6"
       fy="287.5"
       fx="398.1"
       cy="287.5"
       cx="398.1"
       id="radialGradient5255"
       xlink:href="#linearGradient5249"
       inkscape:collect="always" /><linearGradient
       id="linearGradient5249"
       inkscape:collect="always"><stop
         id="stop5251"
         offset="0"
         style="stop-color:#e3e3e3;stop-opacity:1;" /><stop
         id="stop5253"
         offset="1"
         style="stop-color:#e3e3e3;stop-opacity:0;" /></linearGradient></defs><sodipodi:namedview
     id="base"
     pagecolor="#ffffff"
     bordercolor="#666666"
     borderopacity="1.0"
     inkscape:pageopacity="0.0"
     inkscape:pageshadow="2"
     inkscape:zoom="2.8"
     inkscape:cx="199.3"
     inkscape:cy="110.3"
     inkscape:document-units="px"
     inkscape:current-layer="layer1"
     showgrid="false"
     showguides="true"
     inkscape:guide-bbox="true"
     fit-margin-top="0"
     fit-margin-left="0"
     fit-margin-right="0"
     fit-margin-bottom="0"
     inkscape:window-width="1615"
     inkscape:window-height="1026"
     inkscape:window-x="65"
     inkscape:window-y="24"
     inkscape:window-maximized="1"><sodipodi:guide
       orientation="-0.7,0.7"
       position="-1711.4,579.1"
       id="guide2985" /></sodipodi:namedview><g
     inkscape:label="Ebene 1"
     inkscape:groupmode="layer"
     id="layer1"
     transform="translate(-282.8,-318.9)"><path
       style="fill:#000000"
       d="m 453.2,605.3 c -0.5,-0.3 -1.4,-0.5 -2.0,-0.5 -2.1,0 -6.1,-2.6 -6.8,-4.4 -0.2,-0.5 -0.5,-2.0 -0.7,-3.3 -0.3,-2.2 -0.6,-2.9 -2.2,-6.0 -0.6,-1.0 -0.7,-1.8 -0.7,-4.4 0,-1.7 -0.2,-3.9 -0.4,-4.8 -0.8,-3.2 -0.9,-6.0 -0.4,-8.3 0.5,-2.1 0.5,-2.3 -0.3,-7.5 -0.4,-2.9 -1.3,-7.6 -1.8,-10.5 -0.9,-4.6 -1.0,-5.8 -1.1,-10.6 -0.0,-5.0 0.0,-5.7 0.9,-8.7 0.5,-1.8 1.8,-5.3 2.8,-7.9 1.9,-4.5 1.9,-4.7 1.7,-6.6 -0.1,-1.1 -0.3,-3.7 -0.3,-5.8 -0.0,-4.2 -0.0,-4.3 -2.6,-7.4 -0.6,-0.7 -1.4,-2.0 -1.7,-3.0 -0.4,-1.0 -0.9,-1.7 -1.2,-1.7 -1.2,0 -2.4,-1.1 -3.2,-2.7 -0.8,-1.8 -1.7,-5.9 -1.7,-7.9 0,-0.7 -0.1,-1.3 -0.3,-1.4 -0.2,-0.1 -9.6,2.9 -20.9,6.6 -11.3,3.7 -20.8,6.8 -21.1,6.8 -0.3,0 -1.5,-1.1 -2.8,-2.4 l -2.3,-2.4 0,-2.9 c 0,-2.4 0.1,-3.0 0.6,-3.3 0.3,-0.2 4.9,-1.8 10.2,-3.5 l 9.6,-3.1 0.1,-11.8 c 0.0,-6.5 -0.0,-11.8 -0.2,-11.8 -0.4,0 -5.2,3.6 -5.9,4.4 -0.3,0.3 -0.7,1.1 -0.9,1.8 -0.7,2.3 -3.3,3.8 -6.0,3.4 -1.1,-0.2 -3.8,-2.3 -7.1,-5.6 -1.4,-1.4 -3.1,-4.6 -4.7,-8.6 l -0.9,-2.3 0.2,-7.6 0.2,-7.6 -1.4,-1.4 c -1.4,-1.4 -2.5,-3.8 -2.5,-5.7 0,-0.4 -0.1,-0.7 -0.3,-0.7 -0.6,0 -11.1,2.7 -11.3,2.9 -0.1,0.1 -0.1,0.9 0.1,1.6 0.2,0.8 0.5,3.3 0.7,5.5 0.8,8.7 -1.0,16.8 -4.9,22.3 -1.6,2.2 -2.7,3.2 -5.0,4.4 -1.8,0.9 -6.3,1.3 -8.4,0.6 -1.3,-0.4 -1.5,-0.3 -2.8,0.6 -4.1,2.7 -9.6,2.6 -14.2,-0.4 -5.2,-3.4 -10.7,-11.6 -12.9,-19.5 -0.5,-1.7 -0.9,-3.1 -0.9,-3.2 -0.0,-0.1 -3.6,0.8 -8.0,1.9 -4.4,1.1 -8.1,2.0 -8.2,2.0 -0.2,0 -0.6,-0.4 -1.1,-0.8 -0.6,-0.65 -0.8,-1.1 -0.8,-2.6 0,-1.6 0.1,-1.8 0.7,-2.1 0.4,-0.2 4.1,-1.1 8.3,-2.1 4.1,-1.0 7.7,-1.8 7.9,-1.9 0.2,-0.1 0.3,-1.1 0.1,-3.1 -0.3,-3.7 0.1,-9.2 1.0,-12.7 0.9,-3.5 3.1,-8.0 5.1,-10.2 3.0,-3.4 7.7,-4.8 11.9,-3.7 1.8,0.5 1.8,0.5 3.2,-0.4 2.3,-1.5 4.2,-2.0 7.4,-1.9 2.5,0.1 3.1,0.3 5.2,1.3 1.3,0.7 3.2,1.9 4.2,2.8 3.5,3.1 7.4,9.1 9.1,13.7 0.8,2.3 0.9,2.4 1.8,2.2 0.5,-0.1 3.9,-0.9 7.6,-1.9 l 6.6,-1.7 -0.1,-0.9 c -0.1,-1.6 0.5,-4.2 1.3,-4.9 0.4,-0.4 1.7,-0.9 3.0,-1.2 2.1,-0.5 2.5,-0.7 3.9,-2.2 1.7,-1.8 1.6,-1.8 4.3,-1.1 0.6,0.2 0.9,0.1 1.0,-0.4 0.6,-1.8 2.2,-4.7 3.2,-5.7 0.7,-0.7 2.1,-1.7 3.3,-2.2 1.8,-0.8 2.6,-1.0 5.2,-1.1 3.9,-0.2 6.1,0.3 9.3,1.9 3.9,2.0 4.7,2.8 5.5,5.4 0.4,1.2 0.8,2.2 0.9,2.2 0.1,0.0 10.1,-2.4 22.1,-5.4 l 21.9,-5.4 0,-1.0 c 0,-2.4 3.0,-4.1 7.4,-4.2 1.9,-0.0 3.3,-0.3 4.6,-0.7 2.7,-1.0 4.2,-0.9 5.5,0.4 l 1.0,1.0 6.3,-1.6 6.3,-1.6 0,-4.1 c 0,-4.7 0.6,-8.5 1.8,-12.1 1.9,-5.4 4.9,-9.4 8.4,-11.3 1.6,-0.8 2.1,-0.9 5.1,-1.0 3.4,-0.1 3.4,-0.1 5.0,-1.2 2.3,-1.7 4.4,-2.2 7.8,-2.1 2.2,0.1 3.2,0.3 4.7,1.1 5.0,2.4 10.6,10.0 12.9,17.3 0.3,1.0 0.7,1.9 0.9,1.9 0.2,3.2e-4 4.3,-1.0 9.1,-2.2 l 8.8,-2.2 0.8,0.9 c 0.6,0.8 0.8,1.2 0.7,2.6 l -0.1,1.7 -9.1,2.3 -9.1,2.3 0.2,1.9 c 0.1,1.0 0.1,4.4 0.1,7.4 -0.0,4.8 -0.1,5.9 -0.9,8.7 -1.7,6.7 -5.4,12.3 -9.4,14.2 -1.6,0.8 -2.2,0.9 -5.2,0.9 -3.3,0.0 -3.5,0.1 -4.5,0.9 -2.1,1.8 -3.6,2.3 -7.2,2.3 -2.9,-6.4e-4 -3.4,-0.1 -5.3,-1.0 -6.1,-2.9 -12.2,-12.1 -14.1,-21.2 -0.2,-1.1 -0.5,-2.0 -0.6,-2.2 -0.4,-0.4 -12.5,2.8 -12.4,3.2 0.1,0.2 0.2,1.5 0.4,2.7 0.2,2.3 0.2,2.4 -1.0,4.1 -0.7,1.0 -1.4,2.2 -1.6,2.8 -0.6,1.4 -0.6,7.9 0.0,9.7 1.3,3.8 1.3,8.7 -0.3,13.9 -0.4,1.5 -0.9,3.9 -1.2,5.5 -0.6,4.4 -1.1,4.7 -8.5,4.6 -4.8,-0.1 -5.4,-0.1 -9.4,-1.2 -2.3,-0.6 -4.2,-1.0 -4.2,-0.9 0.5,1.1 3.8,5.2 4.7,5.7 0.6,0.3 1.3,1.1 1.7,1.6 0.7,1.1 1.3,1.4 4.9,2.2 1.8,0.4 2.5,0.8 3.7,1.9 1.2,1.1 2.2,1.6 5.8,2.8 2.4,0.8 6.1,1.9 8.2,2.5 3.9,1.0 6.3,1.9 7.2,2.7 0.3,0.2 1.6,0.8 2.9,1.3 1.3,0.5 4.3,1.8 6.6,2.9 3.7,1.8 4.5,2.4 7.4,5.0 2.7,2.4 3.8,3.2 6.6,4.6 1.9,0.9 3.8,2.1 4.4,2.6 1.7,1.7 3.0,4.7 3.9,9.5 0.2,1.3 0.2,2.0 -0.2,3.0 -0.6,1.8 -0.6,4.6 0.1,8.9 0.6,4.0 0.8,19.2 0.3,29.6 -0.3,6.8 -0.0,9.7 1.2,11.5 0.4,0.6 2.1,2.1 3.7,3.4 1.7,1.3 4.6,4.0 6.4,5.9 1.9,1.9 3.6,3.5 3.9,3.5 0.3,0 1.5,0.4 2.7,0.9 1.2,0.5 2.8,1.0 3.5,1.2 1.3,0.2 4.1,2.1 4.7,3.1 0.2,0.3 0.3,1.1 0.3,1.7 0,1.0 -0.2,1.3 -1.7,2.4 -2.8,2.1 -4.7,2.4 -8.1,1.5 -1.0,-0.3 -3.0,-0.6 -4.4,-0.7 -2.5,-0.2 -2.9,-0.4 -6.5,-2.3 -4.0,-2.2 -6.9,-3.3 -8.8,-3.3 -0.6,0 -2.6,0.2 -4.4,0.5 -1.8,0.3 -3.7,0.4 -4.4,0.3 -1.2,-0.2 -2.9,-1.7 -3.7,-3.2 -0.8,-1.6 -0.4,-4.9 1.2,-8.9 1.8,-4.4 2.5,-9.2 2.0,-13.1 -0.7,-5.0 -2.0,-9.5 -3.1,-11.1 -1.7,-2.3 -2.6,-4.7 -3.2,-8.1 -0.5,-2.8 -0.5,-3.7 -0.2,-8.4 0.2,-2.9 0.4,-6.2 0.4,-7.3 l -0.0,-2.1 -2.2,-1.1 c -1.2,-0.6 -3.0,-1.9 -4.0,-2.8 l -1.8,-1.7 -0.2,1.1 c -0.2,1.3 -1.8,3.2 -3.2,3.9 -0.5,0.3 -6.6,2.5 -13.4,5.0 -6.8,2.4 -12.5,4.5 -12.6,4.6 -0.1,0.1 -0.2,7.0 -0.3,15.5 l -0.2,15.4 0.8,-0.3 c 5.0,-2.2 21.4,-8.4 21.8,-8.2 0.3,0.1 1.8,1.0 3.3,2.0 l 2.8,1.8 0,3.3 c 0,2.9 -0.1,3.4 -0.6,3.7 -0.3,0.2 -9.7,3.9 -20.8,8.3 -11.1,4.4 -20.4,8.0 -20.6,8.1 -0.4,0.2 -0.4,1.3 -0.2,6.8 0.1,3.7 0.4,7.1 0.5,7.7 0.2,0.6 1.1,1.9 2.0,2.9 2.7,2.8 3.9,4.5 5.3,7.4 0.9,1.9 2.0,3.4 3.4,4.9 1.1,1.2 2.0,2.4 2.0,2.7 0,0.3 0.6,1.2 1.4,2.1 1.8,2.0 1.9,2.8 0.2,4.6 -1.2,1.3 -1.3,1.4 -3.4,1.4 -1.2,0 -2.1,0.1 -2.1,0.2 0,0.6 -2.2,1.5 -3.5,1.5 -0.9,0 -1.8,0.2 -2.4,0.6 -1.1,0.8 -2.9,0.8 -4.1,0.2 z m 3.2,-1.9 c 0.5,-0.3 1.6,-0.5 2.4,-0.5 1.7,0 3.0,-0.8 3.3,-2.1 0.2,-0.9 0.7,-1.0 1.5,-0.3 0.3,0.3 1.1,0.6 1.8,0.7 1.1,0.1 1.3,0.1 2.1,-0.9 0.9,-1.0 0.9,-1.1 0.3,-1.9 -1.5,-2.3 -2.6,-3.8 -4.4,-5.8 -1.1,-1.2 -2.5,-3.1 -3.2,-4.4 -1.2,-2.3 -2.7,-4.3 -5.6,-7.7 -1.8,-2.1 -2.1,-3.1 -2.6,-7.0 -0.4,-3.3 -0.4,-16.1 -0.0,-17.8 0.2,-0.7 0.9,-2.1 1.6,-3.2 2.0,-3.0 2.4,-4.8 2.2,-9.5 -0.1,-2.1 -0.3,-4.2 -0.5,-4.6 -0.3,-0.7 -0.4,-0.6 -1.4,1.1 -2.0,3.3 -4.8,12.1 -4.8,15.0 0,1.2 -0.1,1.2 -0.5,0.9 -1.6,-1.3 1.6,-13.6 4.7,-18.2 1.6,-2.3 2.1,-4.0 2.5,-7.4 0.2,-2.2 0.5,-3.0 1.4,-4.3 2.2,-3.3 2.3,-3.6 2.1,-6.7 -0.1,-1.9 -0.1,-3.0 0.2,-3.6 0.5,-1.0 1.0,-1.0 1.2,0.2 l 0.2,1.0 0.5,-1.0 c 0.6,-1.2 0.7,-5.3 0.2,-10.4 -0.8,-7.6 -3.3,-12.8 -7.1,-14.8 -1.7,-0.9 -6.4,-1.2 -9.8,-0.6 -2.9,0.5 -4.4,1.6 -6.2,4.5 -1.5,2.5 -1.6,4.0 -0.6,7.3 0.9,2.8 1.6,4.3 3.5,6.9 0.8,1.2 1.9,2.8 2.3,3.6 0.7,1.4 0.7,1.6 0.3,2.8 -0.4,1.2 -0.4,1.7 0.2,7.2 0.1,1.3 0.0,2.3 -0.4,3.7 -0.9,2.9 -0.7,5.4 0.8,10.0 1.0,3.2 1.2,3.9 0.8,3.9 -0.7,-0.1 -1.6,-1.8 -2.8,-5.3 l -1.0,-3.0 -0.7,1.9 c -1.6,4.2 -2.1,7.1 -2.1,12.2 -0.0,4.6 0.1,5.3 1.6,12.4 1.4,6.7 1.6,8.1 1.6,11.8 0.0,3.1 -0.1,4.6 -0.5,5.9 -0.5,1.7 -0.5,1.7 0.2,2.4 0.4,0.4 0.9,1.0 1.1,1.4 0.4,0.8 0.1,1.8 -0.5,1.6 -0.5,-0.2 -0.5,-0.1 -0.1,1.0 0.2,0.5 0.4,2.5 0.4,4.5 0.0,3.4 0.1,3.6 1.1,5.2 1.4,2.3 2.0,4.1 2.0,6.4 0,1.8 0.1,2.1 0.9,2.8 1.0,1.0 5.1,2.8 6.3,2.8 0.4,0 0.9,0.1 1.0,0.3 0.3,0.5 1.6,0.4 2.6,-0.2 z m 4.3,-3.4 c -0.2,-0.2 -0.4,-0.5 -0.4,-0.7 0,-0.2 -0.2,-0.6 -0.4,-0.9 -0.4,-0.5 -0.5,-0.5 -0.9,-0.1 -0.6,0.6 -5.9,1.1 -7.8,0.7 -1.0,-0.2 -1.2,-0.3 -1.1,-0.9 0.1,-0.6 0.3,-0.7 1.2,-0.6 3.9,0.2 7.4,0.0 7.4,-0.5 0,-1.0 2.4,0.2 3.0,1.5 0.7,1.5 -0.0,2.6 -1.1,1.6 z m -16.4,-19.3 c 0,-0.2 0.6,-1.2 1.4,-2.2 0.8,-1.0 2.0,-2.8 2.6,-4.1 1.1,-2.1 1.2,-2.2 1.3,-1.3 0.2,1.8 -3.5,7.9 -4.8,7.9 -0.4,0 -0.6,-0.2 -0.6,-0.3 z m 7.5,-55.3 c -1.0,-0.6 -1.7,-1.8 -1.3,-2.2 0.1,-0.1 0.9,0.1 1.8,0.5 1.0,0.4 1.9,0.6 2.4,0.5 0.6,-0.1 0.9,-0.1 1.0,0.3 0.5,1.4 -2.1,2.0 -3.9,0.9 z m 7.8,-12.1 c -0.1,-0.1 -0.3,-0.9 -0.4,-1.8 -0.2,-1.2 -0.5,-2.0 -1.6,-3.2 -1.3,-1.6 -1.6,-2.8 -0.6,-2.8 0.6,0 2.7,2.5 3.4,4.1 0.7,1.7 0.7,3.8 -0.1,3.9 -0.3,0.1 -0.6,-0.0 -0.7,-0.1 z m -10.7,-1.6 c -0.8,-0.3 -0.4,-1.2 1.4,-3.0 1.0,-1.0 2.3,-2.4 2.9,-3.1 1.1,-1.4 1.9,-1.3 1.6,0.2 -0.3,1.2 -3.0,4.7 -4.1,5.4 -1.1,0.7 -1.1,0.7 -1.8,0.4 z m 97.7,58.0 c 0.2,-0.3 0.3,-0.9 0.3,-1.4 -0.1,-0.8 -0.2,-0.9 -1.7,-1.1 -0.9,-0.1 -2.0,-0.4 -2.4,-0.7 -0.4,-0.3 -1.1,-0.6 -1.5,-0.6 -0.4,0 -0.8,-0.1 -0.9,-0.3 -0.4,-0.6 0.9,-0.7 2.7,-0.2 1.0,0.3 2.4,0.6 3.0,0.7 0.9,0.1 1.4,0.4 1.8,1.2 l 0.6,1.0 -0.0,-1.0 c -0.0,-0.8 -0.3,-1.2 -1.4,-2.0 -0.7,-0.5 -2.0,-1.1 -2.7,-1.2 -0.7,-0.1 -2.7,-0.7 -4.3,-1.4 -2.7,-1.1 -3.2,-1.4 -5.9,-4.1 -1.6,-1.6 -4.2,-3.9 -5.8,-5.0 -4.3,-3.2 -5.2,-4.0 -5.8,-5.7 -0.9,-2.8 -1.2,-6.7 -1.0,-13.3 0.6,-16.8 0.6,-19.0 0.2,-21.7 -0.2,-1.6 -0.5,-4.3 -0.7,-6.0 -0.3,-2.5 -0.5,-3.1 -0.9,-3.1 -0.4,0.0 -0.5,-0.3 -0.6,-1.2 -0.1,-1.0 0.1,-1.6 1.0,-3.1 0.7,-1.1 1.1,-2.3 1.1,-2.9 0,-1.7 -1.8,-6.9 -3.2,-9.0 -1.2,-1.9 -1.4,-2.0 -4.2,-3.2 -2.6,-1.1 -3.4,-1.6 -6.0,-4.1 -1.6,-1.5 -4.0,-3.4 -5.2,-4.1 -3.2,-1.9 -10.8,-5.0 -12.8,-5.2 -2.0,-0.2 -5.9,0.5 -7.7,1.4 -3.0,1.6 -4.7,5.4 -5.9,13.6 -0.3,1.9 -0.5,3.6 -0.5,3.7 0,0.5 5.0,3.0 7.1,3.5 1.1,0.3 3.8,0.6 6.0,0.8 5.9,0.5 7.6,1.1 10.9,3.9 3.3,2.8 6.8,4.5 9.4,4.8 1.5,0.1 2.0,0.3 2.0,0.7 0.1,0.4 -0.3,0.6 -2.0,0.8 l -2.1,0.2 -0.5,3.4 c -0.8,5.4 -0.9,8.4 -0.5,11.4 0.7,5.2 1.7,7.6 5.2,12.2 1.0,1.3 1.5,2.3 1.5,2.9 0,1.1 -0.5,1.5 -1.1,1.0 -0.4,-0.3 -0.4,-0.2 -0.2,0.7 0.7,2.5 1.1,7.2 0.9,10.3 -0.2,3.8 -0.7,5.6 -2.5,9.3 -2.4,5.1 -1.2,8.3 3.3,8.3 3.4,0 6.3,-0.4 6.3,-0.9 0,-1.1 3.0,0.1 7.8,2.9 1.5,0.9 2.3,1.2 2.4,0.9 0.2,-0.6 0.9,-0.5 1.3,0.3 0.7,1.3 1.6,1.6 5.7,1.9 2.1,0.1 4.2,0.4 4.5,0.6 0.9,0.5 4.1,0.5 4.6,-0.1 z m -32.3,-11.8 c -1.0,-0.4 -1.2,-1.7 -0.6,-3.2 0.3,-0.7 0.6,-1.5 0.6,-2.0 0.1,-0.4 0.3,-0.8 0.5,-0.9 0.6,-0.2 0.7,0.8 0.3,2.4 -0.7,2.2 -0.4,2.6 1.5,2.9 0.9,0.1 1.5,0.3 1.3,0.5 -0.4,0.4 -2.8,0.6 -3.5,0.3 z m -7.5,-59.7 c -1.9,-0.5 -3.6,-1.6 -4.6,-2.9 -0.7,-1.0 -1.4,-1.4 -4.4,-2.6 -1.1,-0.4 -1.2,-0.6 -0.9,-1.2 0.3,-0.5 0.6,-0.6 1.3,-0.5 1.0,0.2 5.4,3.0 5.4,3.4 0,0.1 0.7,0.8 1.6,1.5 1.6,1.2 1.7,1.2 3.8,1.0 2.0,-0.2 2.2,-0.2 2.2,0.4 0,1.4 -1.6,1.7 -4.5,0.9 z m 4.5,-2.2 c -0.0,-0.0 -0.1,-1.5 -0.1,-3.1 -0.1,-2.6 -0.2,-3.4 -1.1,-5.6 -1.2,-2.9 -1.3,-4.2 -0.5,-4.0 0.3,0.1 1.0,1.0 1.6,2.2 0.9,1.8 1.1,2.5 1.2,5.5 0.2,3.7 0.0,5.1 -0.7,5.1 -0.3,0 -0.5,-0.0 -0.5,-0.1 z m -36.5,56.0 19.1,-7.5 0.1,-2.2 0.1,-2.2 -2.2,-1.4 c -1.2,-0.8 -2.3,-1.4 -2.5,-1.4 -0.2,3.2e-4 -5.2,2.0 -11.3,4.4 -6.1,2.4 -11.3,4.3 -11.7,4.3 -0.6,-0.1 -0.7,-0.2 -0.6,-16.3 l 0.0,-16.2 -1.0,0.4 c -0.9,0.3 -1.1,0.8 -2.0,3.1 -0.6,1.5 -1.1,3.4 -1.2,4.2 -0.1,0.8 -0.9,3.0 -1.8,4.8 -1.9,4.2 -2.5,8.1 -1.9,13.0 0.7,6.3 0.1,9.8 -2.6,15.1 -1.0,2.0 -1.7,3.8 -1.8,4.8 l -0.2,1.6 1.2,-0.5 c 0.7,-0.3 9.8,-3.9 20.3,-8.0 z m 4.0,-45.2 c 15.3,-5.4 15.9,-5.7 16.3,-7.9 0.1,-0.6 0.1,-1.3 -0.1,-1.6 -0.3,-0.6 -0.6,-0.7 -6.8,-1.2 -2.7,-0.2 -4.6,-0.6 -6.9,-1.4 -3.1,-1.0 -3.2,-1.1 -4.1,-0.5 -2.1,1.3 -4.4,0.3 -8.9,-3.6 -1.1,-0.9 -2.2,-1.7 -2.5,-1.7 -0.3,-0.0 -1.4,0.3 -2.4,0.7 l -1.8,0.7 0.2,1.3 c 0.1,0.7 0.3,2.8 0.5,4.6 0.2,1.8 0.4,3.9 0.6,4.7 0.2,0.8 0.3,2.1 0.3,2.8 0.0,0.8 0.2,1.4 0.4,1.5 0.2,0.1 5.9,-1.6 12.6,-3.8 8.8,-2.9 12.3,-3.9 12.6,-3.7 0.3,0.3 0.3,0.4 0,0.7 -0.2,0.2 -6.0,2.2 -12.8,4.5 l -12.4,4.1 0,2.6 c 0,1.9 0.1,2.6 0.4,2.4 0.2,-0.1 6.9,-2.4 14.8,-5.2 z m -68.6,-10.3 c 11.1,-3.7 20.4,-6.8 20.7,-6.9 1.1,-0.6 0.5,-1.6 -2.2,-4.0 l -2.7,-2.4 -5.7,1.9 c -4.6,1.5 -5.8,1.8 -6.2,1.5 -0.4,-0.3 -0.5,-1.6 -0.5,-7.4 l 0,-7.0 -3.4,-3.0 -3.4,-3.0 0,11.1 c 0,8.9 -0.1,11.2 -0.4,11.5 -0.2,0.2 -4.9,1.9 -10.4,3.6 l -10.0,3.2 0,1.9 c 0,1.9 0.0,1.9 1.8,3.8 1,1.0 1.9,1.8 2.0,1.7 0.1,-0.1 9.3,-3.1 20.4,-6.7 z m 25.7,-1.5 c 2.0,-4.1 4.6,-6.4 7.8,-7.0 3.7,-0.8 10.1,-0.1 12.8,1.3 0.7,0.4 1.8,1.3 2.5,2.0 l 1.2,1.4 -0.1,-1.6 c -0.1,-1.6 -0.1,-1.6 1.2,-2.3 1.9,-1.1 4.6,-1.8 5.4,-1.5 0.4,0.2 2.1,1.4 3.9,2.7 1.8,1.3 3.3,2.5 3.5,2.6 0.2,0.1 0.3,-0.3 0.2,-1.2 -0.1,-1.6 0.7,-7.7 1.4,-10.6 0.6,-2.3 2.1,-5.7 3.2,-7.2 1.2,-1.6 6.2,-3.9 8.4,-4.0 1.2,-0.0 0.3,-0.4 -2.7,-1.3 -1.4,-0.4 -5.4,-1.7 -8.9,-3.0 -5.0,-1.8 -6.4,-2.5 -6.8,-3.1 -0.4,-0.6 -1.3,-1.1 -4.4,-2.1 -2.2,-0.7 -4.7,-1.4 -5.6,-1.4 -1.9,-0.2 -2.0,-0.7 -0.1,-1.2 1.3,-0.3 1.3,-0.4 0.7,-0.7 -1.0,-0.5 -4.2,-0.5 -7.0,0.1 -6.3,1.3 -14.2,5.5 -18.7,9.9 -3.8,3.8 -4.5,5.4 -3.7,9.0 0.4,1.7 0.6,2.1 1.1,2.2 0.4,0.1 1.1,0.7 1.6,1.5 0.9,1.3 1.0,1.6 1.0,3.9 -0.0,1.4 -0.2,3.5 -0.5,4.8 -0.4,2.0 -0.4,2.9 0.1,6.7 0.7,5.4 0.9,6.1 1.2,3.7 0.1,-1.0 0.6,-2.6 1.1,-3.5 z m 22.5,-8.7 c -0.4,-0.6 -1.1,-1.8 -1.6,-2.6 -1.5,-3.0 -3.4,-4.3 -6.0,-4.3 -1.5,0 -2.3,-0.7 -1.7,-1.4 1.2,-1.4 5.6,0.2 7.4,2.7 1.8,2.5 3.5,5.3 3.5,5.9 3.3e-4,1.0 -0.9,0.9 -1.7,-0.1 z m 8.5,-10.5 c 0.1,-2.3 0.3,-3.2 1.1,-4.9 1.0,-2.1 2.5,-4.2 3.0,-4.2 0.5,0 0.3,0.5 -1.0,2.8 -1.1,1.9 -1.3,2.7 -1.6,5.1 -0.4,3.5 -0.5,4.0 -1.2,4.0 -0.4,0 -0.5,-0.4 -0.4,-2.8 z m -34.8,1.1 c -0.6,-1.6 1.5,-5.4 5.4,-9.4 3.2,-3.2 4.4,-4.0 8.1,-4.8 2.9,-0.7 3.4,-0.9 5.0,-2.4 1.6,-1.5 2.4,-1.8 2.6,-1.1 0.1,0.4 -0.2,0.9 -1.1,1.6 -2.3,2.0 -4.1,3.0 -6.4,3.4 -3.2,0.7 -4.0,1.1 -6.7,3.6 -2.8,2.5 -3.4,3.4 -4.9,7.0 -1.0,2.4 -1.7,3.0 -2.0,2.1 z m 11.7,-4.6 c -0.3,-0.8 0.4,-2.0 1.8,-3.0 1.4,-1.0 10.7,-4.8 15.8,-6.4 3.2,-1.0 4.7,-1.2 4.7,-0.7 0,0.5 -2.8,1.7 -8.9,3.9 -7.5,2.7 -8.7,3.3 -10.9,5.2 -2.0,1.8 -2.2,1.9 -2.5,1.1 z m 5.1,0.2 c -0.6,-0.4 -0.2,-1.0 0.6,-1.0 1.1,0 2.7,-0.8 4.8,-2.6 2.2,-1.8 2.6,-1.9 7.4,-2.8 1.7,-0.3 3.5,-0.8 4.0,-1.2 1.2,-0.8 2.4,-0.8 2.4,0.0 0,1.0 -1.2,1.5 -5.5,2.4 -5.0,1.0 -5.5,1.2 -6.9,2.6 -0.7,0.6 -1.7,1.4 -2.3,1.7 -1.4,0.7 -3.8,1.1 -4.4,0.7 z m 26.8,20.3 c 0.3,-0.2 0.3,-0.4 0.1,-0.5 -0.2,-0.1 -0.5,0.0 -0.7,0.3 -0.4,0.5 -0.1,0.6 0.6,0.2 z m -45.4,-10.1 c -0.3,-1.0 -0.9,-2.9 -1.3,-4.3 -0.4,-1.4 -1.0,-2.7 -1.3,-3.0 -0.3,-0.2 -5.0,-4.1 -10.4,-8.6 -8.8,-7.3 -9.9,-8.2 -10.0,-7.5 -0.1,0.39 -0.5,1.3 -0.9,2.0 l -0.7,1.3 2.7,2.5 c 6.9,6.2 22.3,19.6 22.4,19.5 0.1,-0.1 -0.2,-0.9 -0.5,-1.8 z m -10.2,0.4 c 2.3,-0.7 4.1,-1.3 4.1,-1.4 0,-0.1 -1.5,-1.4 -3.3,-3.0 -1.8,-1.6 -3.8,-3.3 -4.3,-3.8 l -1.0,-0.9 0,5.2 c 0,2.9 0.1,5.2 0.2,5.2 0.1,0 2.1,-0.6 4.3,-1.3 z m 12.0,-2.4 c -0.3,-0.8 -0.7,-1.5 -0.9,-1.6 -0.2,-0.1 -0.1,0.4 0.2,1.0 0.3,0.7 0.6,1.5 0.7,1.8 0.1,0.3 0.2,0.5 0.3,0.4 0.1,-0.1 -0.1,-0.8 -0.4,-1.6 z m -5.8,-9.9 c -1.3,-2.6 -3.9,-5.4 -6.4,-6.8 -0.9,-0.5 -3.1,-1.8 -4.8,-2.9 -1.8,-1.1 -3.7,-2.1 -4.2,-2.2 l -0.9,-0.2 1.1,1.0 c 2.5,2.1 16.2,13.6 16.3,13.6 0.0,0.0 -0.4,-1.0 -1.1,-2.3 z m -85.2,0.4 c 4.5,-2.2 7.8,-8.6 8.8,-17.1 0.4,-3.6 0.2,-8.0 -0.7,-13.0 -2.0,-11.2 -8.0,-21.1 -14.9,-24.5 -2.3,-1.1 -2.8,-1.2 -4.9,-1.2 -2.0,0 -2.7,0.2 -4.3,0.9 -3.4,1.6 -6.1,5.7 -7.8,11.3 -0.8,2.6 -0.9,3.6 -1.0,8.7 -0.1,3.2 -0.0,6.0 0.1,6.2 0.2,0.3 1.8,0.0 6.1,-1.1 6.6,-1.6 7.1,-1.6 7.9,0.3 0.4,1.1 0.3,2.1 -0.3,3.1 -0.2,0.3 -2.5,1.1 -6.5,2.1 -4.6,1.1 -6.2,1.7 -6.2,2.0 0,1.0 2.3,7.2 3.6,10.0 1.7,3.3 4.7,7.6 6.7,9.3 4.4,3.8 9.3,4.9 13.3,3.0 z m -3.3,-0.7 c -0.3,-0.3 0.2,-0.9 1.7,-2.3 2.2,-2.2 3.6,-4.7 4.6,-8.2 0.8,-3.0 0.8,-13.0 -0.0,-17.6 -2.6,-14.3 -7.1,-21.8 -14.6,-24.4 -1.5,-0.5 -2.0,-0.8 -1.9,-1.2 0.2,-0.8 1.6,-0.5 4.3,0.7 5.8,2.7 9.7,8.7 12.2,18.4 1.7,6.6 2.2,10.9 2.0,17.3 -0.2,5.9 -0.5,7.9 -2.2,11.3 -1.6,3.3 -5.1,6.8 -6.0,5.9 z m 57.1,0.7 c 0.5,-0.4 1.2,-1.4 1.6,-2.2 0.4,-0.9 1.5,-2.2 2.4,-2.9 3.7,-3.1 4.8,-4.3 5.7,-6.2 1.8,-3.8 2.4,-9.0 1.6,-14.6 -0.4,-2.8 -0.3,-4.6 0.5,-5.2 0.2,-0.2 0.4,-0.6 0.3,-0.9 -0.3,-0.8 0.5,-1.1 2.9,-1.1 3.5,-0.0 4.8,-0.9 8.6,-5.6 0.5,-0.6 1.4,-1.4 2.1,-1.8 1.1,-0.6 4.5,-1.7 6.5,-2.1 0.7,-0.2 0.9,-0.4 0.9,-1.2 0,-0.6 0.2,-1.0 0.5,-1.0 0.7,0 0.6,2.3 -0.1,3.0 -0.3,0.3 -1.5,0.7 -2.7,1.0 -3.3,0.8 -4.6,1.6 -7.6,4.7 -3.3,3.5 -4.5,4.2 -7.9,4.2 -1.5,0 -2.4,0.1 -2.3,0.3 0.1,0.2 0.0,0.4 -0.1,0.5 -0.2,0.1 -0.3,0.7 -0.3,1.2 0.0,0.8 0.2,1.1 1.0,1.6 1.1,0.6 2.3,0.7 4.9,0.2 2.1,-0.4 3.1,-0.2 3.1,0.7 0,0.7 -0.6,0.8 -1.1,0.3 -0.2,-0.2 -0.7,-0.2 -1.2,-0.1 -0.8,0.1 -0.9,0.3 -0.7,1.0 0.3,1.3 1.3,2.0 2.9,2.0 1.2,0 1.4,0.1 1.2,0.5 -0.2,0.4 -0.5,0.5 -2.1,0.4 -1.0,-0.1 -2.1,-0.3 -2.3,-0.5 -0.3,-0.3 -0.6,-0.2 -1.1,0.6 -0.6,0.9 -0.6,1.0 -0.1,1.7 0.3,0.4 0.6,1.6 0.7,2.7 0.2,1.6 0.3,2.0 0.9,2.3 1.0,0.4 1.0,1.5 -0.1,1.5 -1.1,0 -1.8,-1.1 -2.1,-3.6 -0.3,-2.4 -0.8,-3.0 -2.1,-2.7 l -0.9,0.2 -0.1,2.6 c -0.0,1.4 -0.2,2.9 -0.3,3.2 -0.1,0.4 0.1,0.6 1.2,0.9 5.2,1.3 8.5,3.1 14.5,7.8 1.9,1.5 3.8,3.8 4.4,5.6 0.1,0.2 0.4,-0.0 0.7,-0.5 0.3,-0.4 1.9,-2.1 3.5,-3.8 l 3.0,-3.0 -2.1,-0.5 c -1.7,-0.4 -2.5,-0.5 -3.6,-0.2 -2.0,0.5 -2.6,0.4 -2.6,-0.1 0,-1.2 5.4,-1.6 8.4,-0.7 l 1.6,0.5 2.8,-1.6 c 1.5,-0.9 2.9,-1.6 3.0,-1.6 0.1,0 0.3,-0.3 0.3,-0.7 0.1,-0.4 0.6,-1.0 1.4,-1.4 1.5,-0.8 1.9,-1.6 1.3,-2.7 -0.2,-0.4 -0.7,-1.4 -1.0,-2.0 -0.3,-0.7 -0.8,-1.4 -1.1,-1.5 -0.7,-0.4 -0.8,-1.3 -0.1,-1.3 0.6,0 2.4,2.3 2.4,3.0 0,0.3 0.3,1.0 0.7,1.4 0.4,0.5 0.6,0.8 0.4,0.9 -0.2,0.1 -0.3,0.4 -0.2,0.7 0.1,0.4 -0.2,0.9 -0.9,1.6 l -1.1,1.0 2.9,-1.0 c 1.6,-0.6 2.9,-1.1 2.9,-1.3 8e-4,-0.1 -0.8,-0.3 -1.7,-0.3 -2.0,-0.1 -2.2,-0.7 -0.3,-0.8 1.9,-0.1 3.0,0.2 2.8,0.7 -0.1,0.4 0.0,0.4 0.9,0.1 0.6,-0.2 1.1,-0.3 1.1,-0.3 0.0,0 0.1,-0.7 0.1,-1.6 0,-1.2 0.1,-1.6 0.5,-1.8 0.4,-0.2 0.5,-0.0 0.4,1.1 -0.2,1.7 0.1,2.0 1.4,1.9 l 1.1,-0.1 -2.1,-2.9 c -3.2,-4.5 -3.6,-5.5 -4.1,-10.4 -0.4,-4.4 -0.3,-4.1 -2.8,-8.0 -0.3,-0.5 -0.7,-0.7 -1.5,-0.5 -1.2,0.2 -1.8,-0.4 -1.0,-1.0 0.4,-0.3 0.2,-0.5 -1.3,-1.3 -1.0,-0.5 -2.5,-1.0 -3.3,-1.1 -0.8,-0.1 -1.4,-0.3 -1.3,-0.5 0.2,-0.4 3,-0.4 4.2,-0.0 2.4,0.7 -0.1,-3.3 -3.6,-6.0 l -2.1,-1.6 -3.2,0.2 c -3.4,0.2 -4.9,0.6 -6.4,1.6 -0.8,0.6 -0.9,0.7 -0.4,1.2 0.5,0.6 0.7,1.3 0.3,1.3 -0.1,0 -0.5,-0.3 -0.9,-0.6 -0.9,-0.9 -4.9,-1.9 -7.3,-1.9 -3.5,0.0 -8.9,1.5 -12.1,3.4 -3.3,2.0 -6.5,5.7 -6.5,7.8 -0.0,1.5 -0.9,1.7 -1.1,0.3 -0.1,-1.0 -0.4,-1.0 -3.2,0.3 -1.8,0.8 -3.6,2.7 -4.6,4.7 -0.8,1.5 -0.9,2.4 -0.3,3.7 l 0.4,1.0 2.0,-1.0 c 1.4,-0.7 2.4,-1.0 3.7,-1.0 1.0,-0.0 1.8,0.1 1.9,0.3 0.0,0.2 -1.1,0.7 -2.6,1.2 -2.6,0.9 -4.7,2.2 -4.7,3.1 0,0.2 0.7,1.1 1.6,2.1 1.6,1.7 2.9,4.2 2.9,5.8 l 0,0.8 1.3,-0.6 c 2.0,-1.0 3.7,-3.9 4.3,-7.4 0.3,-1.5 0.5,-2.2 0.9,-2.2 1.2,0 0.3,5.4 -1.3,8.0 -1.0,1.6 -2.4,2.6 -4.1,2.9 -1.1,0.2 -1.2,0.4 -1.5,2.5 -0.2,1.4 -1.3,2.3 -1.7,1.4 -0.1,-0.3 -0.0,-1.3 0.2,-2.1 0.6,-2.5 0.5,-4.8 -0.3,-5.9 -0.3,-0.5 -1.8,-2.0 -3.2,-3.4 l -2.5,-2.4 -0.2,-2.3 c -0.4,-4.1 -0.6,-5.3 -0.9,-5.1 -0.2,0.1 -0.3,0.6 -0.3,1.2 0,0.8 -0.1,0.9 -0.5,0.6 -0.6,-0.5 -0.6,-2.6 -0.1,-3.6 0.2,-0.3 1.1,-1.0 2.1,-1.4 1.8,-0.8 5.1,-3.4 5.5,-4.3 0.6,-1.4 1.3,-5.5 1.1,-5.9 -0.2,-0.3 -1.0,-0.7 -2.0,-0.9 -0.9,-0.2 -2.1,-0.6 -2.7,-0.8 -1.7,-0.7 -2.3,-0.6 -2.3,0.5 0,1.6 1.8,2.7 4.6,2.8 1.2,0.0 1.8,0.2 1.8,0.4 0,0.6 -0.7,0.9 -2.9,1.4 -1.1,0.2 -2.7,0.7 -3.4,1.0 -1.6,0.7 -3.0,2.4 -3.0,3.4 0,0.5 -0.2,0.8 -0.5,0.8 -0.3,0 -0.5,-0.3 -0.5,-1.0 0,-0.5 -0.1,-1.0 -0.2,-1.0 -0.1,0.0 -1.5,0.3 -3.1,0.7 l -2.8,0.7 1.1,1.8 c 0.6,1.0 1.2,2.0 1.3,2.3 0.1,0.3 0.5,0.5 0.8,0.5 1.0,0 1.4,0.8 1.2,2.3 -0.1,0.7 -0.2,1.4 -0.3,1.5 -0.4,0.4 -0.85,-0.3 -0.9,-1.3 -0.0,-1.3 -0.3,-1.7 -1.4,-2.3 l -0.8,-0.4 0,9.3 c 0,8.3 0.1,9.5 0.6,11.3 0.8,2.7 3.0,5.9 6.9,10.2 3.1,3.4 3.3,3.5 4.5,3.6 0.9,0.0 1.6,-0.2 2.2,-0.7 z m -1.9,-2.4 c -0.4,-0.3 -1.1,-0.5 -1.9,-0.4 -1.0,0.1 -1.3,-0.0 -1.3,-0.4 0,-0.3 0.4,-0.5 1.4,-0.6 1.6,-0.1 3.0,0.5 3.1,1.3 0.1,0.7 -0.5,0.7 -1.4,0.0 z m -3.1,-9.1 c -0.8,-0.5 -2.1,-1.7 -3.0,-2.7 -1.5,-1.6 -1.7,-2.0 -2.2,-4.5 -0.8,-3.6 -0.8,-6.0 -0.2,-6.0 0.4,0 0.5,0.5 0.7,1.9 0.2,2.2 1.2,5.1 2.3,6.7 0.6,0.9 2.4,2.2 5.7,4.1 0.6,0.3 0.2,0.8 -1.0,1.1 -0.6,0.1 -1.2,-0.1 -2.2,-0.7 z m 48.9,-1.0 c -0.7,-0.8 -1.1,-3.7 -0.5,-3.5 0.2,0.1 0.5,0.6 0.7,1.2 0.1,0.6 0.5,1.4 0.9,1.8 0.4,0.4 0.7,0.8 0.7,0.9 0,0.5 -1.2,0.2 -1.8,-0.4 z m -6.7,-3.5 c -1.3,-1.2 -2.1,-1.3 -3.9,-1.0 -1.8,0.4 -3.1,-0.1 -4.0,-1.4 -1.2,-1.7 -0.6,-2.2 1.1,-0.8 0.9,0.7 1.2,0.8 2.9,0.7 1.7,-0.1 1.9,-0.1 1.9,0.5 0,0.5 0.1,0.6 0.4,0.3 0.6,-0.6 1.4,-0.5 2.2,0.4 0.8,0.9 2.0,1.0 3.2,0.3 1.1,-0.6 2.1,-0.6 2.4,0.0 0.2,0.4 0.05,0.5 -0.5,0.3 -0.5,-0.1 -1.0,0.1 -1.6,0.6 -1.2,1.1 -2.5,1.0 -3.8,-0.1 z m -14.0,-1.1 c -0.4,-0.2 -0.8,-0.6 -0.9,-0.9 -0.1,-0.4 0.1,-0.4 1.1,-0.2 0.7,0.2 1.9,0.3 2.8,0.2 1.3,-0.0 1.5,0.0 1.4,0.5 -0.1,0.7 -3.2,0.9 -4.4,0.3 z m 33.6,-0.8 c 0,-0.9 -0.2,-1.4 -1.2,-2.2 -0.9,-0.9 -1.1,-1.1 -0.7,-1.3 0.7,-0.3 2.1,0.7 2.5,1.9 0.5,1.5 0.4,2.8 -0.1,2.8 -0.3,0 -0.5,-0.3 -0.5,-1.2 z m -15.1,-0.4 c 0,-0.7 1.6,-2.1 3.1,-2.5 1.2,-0.4 1.6,-0.7 1.7,-1.3 0.1,-0.4 0.3,-0.7 0.4,-0.7 0.2,0 0.2,-0.1 0.0,-0.4 -0.2,-0.2 -0.4,-1.0 -0.6,-1.7 -0.1,-0.7 -0.6,-1.9 -1.0,-2.6 -0.4,-0.7 -0.8,-1.4 -0.8,-1.5 0,-0.5 0.8,-0.1 1.6,0.7 0.7,0.7 1.0,1.4 1.1,2.6 0.2,1.4 1.1,3.4 1.1,2.5 0.0,-0.5 5.2,-0.4 6.0,0.1 0.4,0.2 0.7,0.6 0.7,0.9 0,0.5 -0.8,0.6 -1.1,0.1 -0.1,-0.2 -0.9,-0.3 -2.0,-0.1 -1.0,0.1 -2.2,0.1 -2.6,-0.1 -1.3,-0.5 -1.9,-0.2 -1.9,0.9 0,1.2 -1.3,2.3 -2.7,2.3 -0.6,0 -1.3,0.3 -1.6,0.6 -0.6,0.7 -1.4,0.9 -1.4,0.3 z m -15.8,-1.8 c -0.4,-0.4 -0.2,-0.7 1.1,-1.1 1.8,-0.5 2.0,-1.3 1.8,-5.2 -0.2,-3.3 0.1,-4.8 0.9,-4.8 0.6,0 0.6,0.3 0.2,1.5 -0.2,0.6 -0.2,1.4 0.2,2.7 1.1,4.3 0.3,6.3 -2.9,6.9 -0.5,0.1 -1.1,0.1 -1.2,-0.0 z m 7.1,-1.3 c 0,-0.1 0.6,-0.7 1.3,-1.4 1.0,-1.0 1.3,-1.5 1.3,-2.3 0.0,-0.6 0.1,-1.2 0.2,-1.4 0.8,-1.0 1.9,-1.6 3.7,-1.8 1.5,-0.2 2.1,-0.4 2.6,-0.9 0.8,-1.0 0.7,-3.3 -0.2,-5.4 -1.1,-2.4 -1.0,-3.1 0.2,-1.7 1.2,1.3 1.9,2.9 1.9,4.1 0.0,0.5 0.1,0.7 0.2,0.5 0.1,-0.3 0.4,-0.2 1.0,0.2 0.7,0.5 1.0,0.6 2.0,0.3 1.7,-0.5 3.0,-0.4 3.9,0.3 0.5,0.4 1.0,0.6 1.3,0.4 0.7,-0.3 0.7,0.3 0.0,0.9 -0.4,0.4 -0.7,0.3 -1.6,-0.1 -0.9,-0.5 -1.3,-0.5 -2.3,-0.2 -1.9,0.5 -2.8,0.4 -3.7,-0.5 l -0.8,-0.8 -0.2,1.2 c -0.2,1.6 -1.7,2.7 -3.7,2.7 -1.9,0.0 -3.3,0.9 -3.5,2.5 -0.3,1.6 -1.9,3.7 -3.0,3.7 -0.4,0 -0.8,-0.1 -0.8,-0.2 z m 20.2,-4.2 c 0,-0.8 -0.2,-1.9 -0.5,-2.4 -0.4,-0.9 -0.4,-1.0 0.0,-1.2 0.9,-0.3 1.2,0.4 1.4,2.8 0.1,1.9 0.0,2.2 -0.4,2.2 -0.4,0 -0.5,-0.3 -0.5,-1.5 z m -30.5,-0.1 c -0.5,-0.4 -0.9,-0.9 -0.9,-1.2 0,-0.6 0.5,-0.6 1.0,0.0 0.5,0.6 2.1,0.6 3.5,0.1 1.5,-0.5 2.1,0.1 0.7,0.8 -1.8,0.9 -3.3,1.0 -4.3,0.2 z m -31.9,-3.6 c -0.4,-0.6 -1.0,-3.6 -0.9,-3.9 0.1,-0.1 0.4,-0.2 0.8,-0.2 0.5,0 0.6,0.2 0.6,0.9 -0.0,0.5 0.1,1.5 0.2,2.3 0.2,1.4 -0.1,1.9 -0.7,1.0 z m 28.8,0.2 c -0.2,-0.1 -0.4,-0.5 -0.4,-0.8 0,-0.6 0.1,-0.6 1.0,-0.5 0.7,0.1 1.6,-0.0 2.7,-0.4 2.0,-0.8 3.3,-0.8 3.3,-0.2 0,0.3 -0.3,0.5 -1.0,0.5 -0.6,0 -1.4,0.4 -2.0,0.8 -1.0,0.8 -2.6,1.0 -3.6,0.6 z m 9.8,-2.6 c -0.9,-0.9 0.7,-2.9 3.9,-4.8 1.4,-0.8 2.7,-1.7 3.1,-2.1 0.6,-0.6 0.6,-0.7 -0.1,-1.9 -0.8,-1.5 -0.4,-2.0 0.6,-0.8 0.9,1.2 1.1,2.1 0.7,3.4 -0.5,1.5 -1.3,2.2 -3.1,2.5 -2.5,0.5 -3.5,1.1 -4.0,2.6 -0.4,1.2 -0.7,1.5 -1.1,1.1 z m 21.8,-1.3 c -0.1,-0.1 -0.2,-0.5 -0.2,-0.9 0,-0.5 -0.5,-1.1 -1.3,-1.7 -1.4,-1.1 -1.6,-1.6 -0.7,-1.6 0.9,0 2.9,2.4 2.9,3.5 0,0.9 -0.3,1.2 -0.7,0.8 z m -4.0,-4.8 c -0.5,-0.4 -1.1,-0.5 -2.2,-0.3 -1.9,0.3 -4.0,-0.3 -5.1,-1.5 -1.0,-1.0 -0.8,-1.6 0.3,-0.9 1.9,1.2 2.4,1.3 4.5,1.2 1.8,-0.1 2.3,0.0 2.8,0.6 0.9,0.9 0.7,1.6 -0.3,0.9 z m -7.9,-5.0 c -3.3,-0.2 -4.1,-0.6 -4.1,-2.0 0,-0.6 0.1,-0.5 0.9,0.2 0.8,0.7 1.2,0.8 3.0,0.6 2.2,-0.2 3.8,0.3 3.8,1.0 0,0.3 -0.1,0.5 -0.2,0.4 -0.1,-0.0 -1.7,-0.1 -3.4,-0.2 z m -80.7,40.7 c 6.1,-2.9 10.0,-13.5 9.0,-24.7 -1.1,-11.4 -4.7,-20.1 -10.9,-26.4 -3.2,-3.2 -5.8,-4.5 -9.4,-4.7 -2.1,-0.1 -2.7,-0.0 -4.2,0.7 -1.6,0.7 -2.3,1.5 -1.5,1.5 0.6,0 5.8,5.3 7.3,7.5 9.1,13.2 10.7,33.5 3.5,44.8 -1.3,2.1 -1.4,2.1 2.2,2.1 1.8,0.0 2.6,-0.1 4.0,-0.8 z m -3.1,-0.6 c -0.1,-0.3 0.4,-1.0 1.4,-1.9 5.6,-5.1 7.1,-14.7 4.4,-28.5 -1.6,-8.1 -4.0,-13.7 -7.4,-17.4 -2.2,-2.4 -4.0,-3.6 -6.7,-4.5 -1.5,-0.5 -2.0,-0.8 -1.9,-1.2 0.2,-1.2 4.2,0.2 7.1,2.3 4.9,3.7 8.3,10.4 10.3,20.1 2.1,10.8 1.8,19.5 -1.0,25.3 -0.9,1.8 -4.8,6.2 -5.5,6.2 -0.2,0 -0.4,-0.2 -0.5,-0.5 z m -51.1,-18.3 c 0,-0.6 -0.2,-1.3 -0.5,-1.5 -0.4,-0.3 -0.5,-0.3 -0.5,0.6 0,0.5 0.1,1.2 0.2,1.5 0.3,0.9 0.8,0.6 0.8,-0.6 z m 16.3,-2.8 c 7.1,-1.8 13.0,-3.3 13.2,-3.4 0.4,-0.3 0.4,-1.5 -0.1,-2.2 -0.4,-0.5 -1.1,-0.4 -8.1,1.4 -4.2,1.0 -10.6,2.6 -14.1,3.4 -3.5,0.8 -6.4,1.5 -6.5,1.6 -0.0,0.0 0.0,0.7 0.1,1.5 l 0.2,1.5 1.2,-0.3 c 0.6,-0.2 7.0,-1.7 14.1,-3.5 z m 159.5,2.1 c 0.9,-1.0 1.0,-1.3 1.2,-3.8 0.1,-1.7 0.5,-3.6 1.1,-5.1 0.7,-2.1 0.9,-2.9 0.8,-5.6 -0.0,-1.8 -0.3,-4.5 -0.5,-6.1 -0.3,-1.6 -0.5,-3.7 -0.5,-4.7 -0.0,-1.2 -0.1,-1.6 -0.3,-1.4 -0.5,0.8 -1.0,-0.01 -1.0,-1.9 0,-1.8 0.1,-2.0 1.8,-4.2 2.3,-3.0 2.5,-3.6 2.2,-5.9 l -0.2,-1.9 -0.6,1.0 c -0.4,0.6 -1.2,1.2 -2.0,1.5 -1.4,0.5 -1.4,0.5 -1.2,1.9 0.2,1.5 -0.6,3.8 -1.3,3.8 -0.4,0 -0.4,-0.3 -0.1,-1.6 0.2,-1.1 0.2,-1.8 -0.01,-2.2 -0.6,-0.9 -3.3,-1.8 -4.9,-1.5 -1.2,0.2 -1.4,0.1 -1.3,-0.3 0.1,-0.3 0.8,-0.8 1.7,-1.1 1.8,-0.7 2.4,-1.3 2.4,-2.4 0,-0.9 -0.3,-0.9 -1.7,-0.1 -0.7,0.4 -1.6,0.6 -2.7,0.6 -0.9,6.5e-4 -1.9,0.2 -2.3,0.5 -0.6,0.4 -0.7,0.8 -0.7,3.1 0,2.5 -0.1,2.7 -1.0,2.6 -0.1,-0.0 -0.1,0.3 0.0,0.7 0.3,0.8 0.6,1.0 3.6,2.3 2.1,0.9 2.8,2.2 2.3,3.6 -0.5,1.3 -1.1,1.3 -1.1,-0.1 -0.1,-2.1 -0.5,-0.0 -0.6,2.5 -0.0,2.7 -0.5,4.3 -1.8,6.3 -1.6,2.3 -1.5,3.6 0.2,4.9 1.4,1.0 2.4,2.7 2.7,4.9 0.3,2.1 -0.3,1.7 -1.6,-1.0 -1.1,-2.4 -1.8,-3.1 -4.2,-4.3 -1.9,-0.9 -3.6,-1.1 -6.1,-0.7 -1.2,0.2 -2.5,0.4 -2.9,0.4 -0.9,0.1 -1.0,-1.0 -0.2,-1.3 0.6,-0.2 0.6,-0.3 -0.5,-2.0 -1.7,-2.6 -2.9,-3.7 -4.6,-4.4 -1.4,-0.6 -4.2,-1.2 -4.2,-0.9 0,0.1 0.2,0.7 0.5,1.4 0.3,0.7 0.4,1.6 0.4,2.0 -0.1,0.6 0.1,0.9 0.9,1.4 1.3,0.8 4.0,4.4 4.7,6.3 0.3,0.8 0.5,2.0 0.5,2.7 0,0.9 0.1,1.3 0.4,1.3 0.2,0 1.0,0.5 1.7,1.0 2.3,1.9 5.4,3.1 8.8,3.6 1.7,0.2 3.3,0.3 3.6,0.2 0.3,-0.1 0.8,-0.7 1.2,-1.3 0.4,-0.6 0.8,-1.1 1.0,-1.1 0.6,0 0.3,1.3 -0.5,2.2 -1.2,1.5 -2.3,1.8 -5.9,1.6 -3.7,-0.2 -5.2,-0.8 -8.1,-3.4 l -2.0,-1.8 -0.1,1.4 c -0.1,0.9 0.1,1.9 0.6,2.9 0.7,1.5 0.8,1.6 3.3,2.3 7.0,2.1 9.6,2.6 12.8,2.3 2.5,-0.2 3.5,-0.6 4.7,-1.9 1.0,-1.0 1.3,-1.1 1.3,-0.1 0,0.5 -0.3,1.1 -0.8,1.4 -0.9,0.7 -1.0,1.0 -0.4,1.0 0.2,0 0.8,-0.5 1.4,-1.1 z m -3.9,-11.4 c 0.9,-5.0 1.0,-5.3 0.6,-6.9 -0.7,-3.2 -0.7,-3.5 -0.4,-3.5 1.3,0 2.2,7.1 1.3,9.8 -0.5,1.6 -1.7,2.1 -1.5,0.6 z m 2.2,-15.6 c -0.2,-0.4 -0.3,-1.2 -0.3,-1.9 0.1,-1.0 0.2,-1.2 1.0,-1.3 0.8,-0.1 0.9,-0.0 0.7,0.5 -0.1,0.3 -0.3,1.2 -0.3,1.9 -0.0,1.4 -0.6,1.8 -1.1,0.8 z m -62.3,24.6 c 1.4,-1.5 1.3,-2.2 -0.6,-2.5 -0.8,-0.1 -1.8,-0.3 -2.2,-0.4 -0.7,-0.2 -0.7,-0.2 -0.5,1.0 0.1,0.7 0.2,1.8 0.2,2.4 0.0,1.2 0.0,1.2 1.0,0.9 0.6,-0.2 1.5,-0.8 2.1,-1.4 z m -19.8,-3.1 c -0.2,-0.4 -0.3,-0.6 -0.3,-0.4 -0.0,0.5 0.3,1.5 0.5,1.3 0.1,-0.1 -0.0,-0.5 -0.2,-0.9 z m -0.2,-5.5 c 0.5,-1.9 3.7,-4.6 7.1,-5.9 l 1.6,-0.6 -1.4,-0.4 -1.4,-0.4 -1.8,1.9 c -1.0,1.1 -2.4,2.2 -3.3,2.6 -1.5,0.7 -1.6,0.8 -1.6,2.1 0,1.5 0.5,1.8 0.8,0.6 z m -12.3,-3.9 c -0.5,-1.6 -0.4,-1.5 -1.0,-1.3 -0.3,0.1 -0.5,0.6 -0.5,1.1 0,1.0 0.8,3.4 1.4,4.1 0.3,0.4 0.4,0.2 0.5,-1.1 0.1,-0.9 -0.1,-2.2 -0.3,-2.9 z m -4.9,-1.6 c 5.5,-1.4 10.0,-2.6 10.2,-2.7 0.1,-0.1 -0.2,-0.7 -0.7,-1.3 l -0.9,-1.1 -8.9,2.2 c -12.4,3.0 -11.1,2.6 -10.9,3.8 0.3,1.3 0.4,1.5 0.9,1.5 0.2,0.0 4.9,-1.1 10.3,-2.5 z m 89.6,-1.2 c 0,-0.3 0.4,-0.9 0.8,-1.4 0.4,-0.5 1.2,-1.8 1.8,-2.8 0.9,-1.7 1.0,-2.1 1.0,-5.3 l 0,-3.5 -1.4,-0.4 c -1.9,-0.5 -2.7,-1.5 -3.3,-3.8 l -0.5,-1.9 -13.9,3.4 -13.9,3.4 2.5,0.2 c 2.7,0.2 3.9,0.7 5.8,2.4 1.0,0.9 1.5,1.1 3.4,1.3 4.1,0.4 6.8,2.2 9.5,6.2 l 1.6,2.4 2.8,0.1 c 1.5,0.1 3.1,0.1 3.4,0.2 0.3,0.0 0.6,-0.1 0.6,-0.4 z m -60.0,-3.4 c 1.0,-1.1 1.2,-1.6 0.8,-1.5 -0.3,0.1 -1.9,0.5 -3.5,0.9 -3.2,0.8 -3.5,1.0 -3.3,1.7 0.1,0.4 0.7,0.5 2.4,0.5 l 2.2,-1.7e-4 1.4,-1.6 z m -14.7,0.0 c 1.0,-0.4 1.8,-0.8 1.9,-0.8 0.0,-0.0 -0.5,-0.6 -1.2,-1.3 -1.1,-1.1 -1.3,-1.5 -1.3,-2.8 0,-1.2 -0.1,-1.6 -0.8,-2.0 -0.9,-0.6 -1.1,-1.4 -0.3,-1.4 0.3,0 0.9,0.35 1.4,0.8 0.5,0.4 1.7,1.0 2.7,1.3 l 1.8,0.48 0,-1.2 c 0,-0.7 -0.2,-1.4 -0.4,-1.5 -0.6,-0.5 -4.6,-1.1 -5.5,-0.9 -0.4,0.1 -1.1,0.7 -1.5,1.3 -0.8,1.3 -1.8,1.9 -3.8,2.2 -0.8,0.1 -1.7,0.4 -2.0,0.5 -0.6,0.3 -1.2,2.0 -1.2,3.4 0,1.1 0.4,1.3 1.8,0.8 0.6,-0.3 0.6,-0.3 -0.1,-0.3 -0.5,-0.0 -0.7,-0.2 -0.7,-0.7 0,-1.7 2.5,-0.8 4.5,1.6 1.6,1.9 1.8,1.9 4.8,0.6 z m -1.8,-1.3 c -0.2,-0.2 -0.6,-0.9 -0.9,-1.5 -0.3,-0.6 -1.0,-1.3 -1.6,-1.5 -1.1,-0.5 -1.5,-1.4 -0.6,-1.4 1.0,0 2.3,1.0 3.3,2.5 0.5,0.8 1.0,1.7 1.0,1.9 0,0.5 -0.8,0.6 -1.2,0.0 z m 130.8,-0.2 c 3.1,-1.4 6.1,-5.4 7.8,-10.4 2.4,-6.9 2.3,-16.7 -0.0,-24.9 -2.5,-8.5 -7.1,-15.2 -12.2,-17.8 -1.6,-0.8 -2.2,-0.9 -4.7,-0.9 -2.4,0 -3.1,0.1 -4.4,0.8 -3.4,1.7 -6.8,7.1 -8.2,12.9 -0.7,2.9 -1.3,12.2 -0.7,12.2 0.2,0.0 3.4,-0.8 7.1,-1.7 l 6.8,-1.7 0.8,1.0 c 1.0,1.2 1.1,3.8 0.2,4.3 -0.3,0.2 -3.7,1.0 -7.5,2.0 l -7.0,1.7 0.2,1.0 c 1.5,8.0 6.3,16.7 11.2,20.0 3.6,2.5 7.4,3.0 10.8,1.5 z m -3.5,-1.1 c -0.1,-0.2 0.7,-1.2 1.8,-2.2 2.4,-2.2 3.7,-4.5 4.8,-8.2 0.7,-2.3 0.7,-3.2 0.7,-9.5 -0.01,-5.8 -0.1,-7.5 -0.7,-10.8 -2.1,-11.1 -6.0,-17.4 -12.3,-19.7 -1.3,-0.5 -2.0,-0.9 -2.1,-1.3 -0.1,-0.5 0.1,-0.5 1.1,-0.4 0.6,0.1 2.0,0.6 3.0,1.0 7.2,3.3 11.4,12.5 12.6,27.4 0.6,7.4 -0.3,13.9 -2.6,18.2 -1.0,1.9 -4.7,5.7 -5.5,5.7 -0.3,0 -0.6,-0.2 -0.7,-0.3 z m -104.0,-2.3 c 3.1,-1.3 6.8,-2.1 9.4,-2.2 1.1,-0.0 9.4,-1.9 22.8,-5.2 l 21.1,-5.2 0.3,-1.0 c 0.2,-0.7 0.2,-1.2 -0.0,-1.4 -0.2,-0.2 -9.3,1.9 -32.0,7.4 -17.4,4.3 -32.2,7.9 -32.8,8.1 -1.1,0.3 -1.1,0.3 -1.0,1.7 l 0.1,1.4 4.7,-1.2 c 2.6,-0.7 5.9,-1.7 7.4,-2.3 z m 119.4,0.0 c 2.6,-1.3 4.5,-3.5 6.3,-7.2 2.5,-5.2 3.0,-7.9 3.0,-15.0 -0.0,-6.5 -0.5,-9.8 -2.3,-15.0 -2.4,-7.1 -6.9,-13.3 -11.4,-15.7 -1.8,-0.9 -2.3,-1.0 -4.9,-1.0 -2.5,-0.0 -3.1,0.1 -4.5,0.8 -0.9,0.4 -1.6,1.0 -1.7,1.1 -0.1,0.2 0.4,0.6 1.1,1.0 1.9,1.0 5.3,4.6 7.3,7.7 3.2,4.9 5.1,10.1 6.1,16.8 0.8,5.2 0.5,13.7 -0.6,17.8 -0.9,3.1 -2.1,6.1 -3.6,8.4 l -0.9,1.4 2.2,-0.2 c 1.5,-0.1 2.7,-0.4 3.8,-1.0 z m -3.0,-0.4 c 0,-0.3 0.9,-1.3 1.9,-2.3 4.5,-4.2 6.4,-11.9 5.5,-22.0 -0.7,-7.3 -2.3,-13.7 -4.5,-17.9 -2.2,-4.2 -6.3,-7.7 -9.7,-8.4 -1.1,-0.2 -1.6,-1.0 -0.9,-1.4 1.1,-0.7 5.6,1.5 8.0,4.0 4.4,4.4 7.0,11.2 8.2,21.5 1.4,12.5 -0.7,21.2 -6.3,25.9 -1.5,1.2 -2.3,1.4 -2.3,0.6 z m -127.3,-0.6 c 1.6,-0.4 3.0,-0.8 3.1,-0.9 0.1,-0.1 0.6,-1.3 1.3,-2.8 0.7,-1.5 1.5,-3.2 1.8,-3.8 0.8,-1.2 2.3,-2.1 3.2,-1.8 0.6,0.2 0.5,0.3 -0.4,0.9 -0.6,0.4 -1.4,1.3 -1.8,2.0 -0.8,1.3 -1.8,4.6 -1.6,4.8 0.1,0.1 2.6,-0.5 5.7,-1.2 l 5.5,-1.3 -0.2,-1.0 c -0.3,-1.5 -0.9,-2.5 -2.3,-3.9 -2.6,-2.6 -6.6,-3.8 -11.4,-3.7 -4.9,0.2 -6.9,1.5 -9.2,5.7 -1.0,2.0 -1.1,3.0 -0.3,3.0 0.8,0 1.9,1.4 1.9,2.6 0.0,1.4 0.3,1.8 1.1,2.0 0.4,0.1 0.6,0.2 0.6,0.2 0,0.0 1.3,-0.3 3.0,-0.7 z m 29.1,-1.0 c 0.7,-0.5 1.1,-0.8 0.8,-0.7 -0.3,0.1 -1.3,0.3 -2.3,0.6 -1.2,0.3 -1.7,0.5 -1.4,0.7 0.7,0.5 1.7,0.3 3.0,-0.6 z m 35.4,-8.2 c 0,-0.5 -0.1,-1.0 -0.3,-1.0 -0.1,0 -0.2,0.4 -0.1,1.0 0.1,0.5 0.2,1.0 0.3,1.0 0.1,0 0.1,-0.4 0.1,-1.0 z m 12.3,-2.8 c 2.7,-0.9 3.8,-3.6 2.6,-6.3 -0.5,-1.2 -1.6,-2.2 -2.5,-2.2 -0.3,0 -1.6,0.4 -2.8,0.8 -1.8,0.7 -2.2,0.9 -1.9,1.3 0.2,0.2 0.3,0.6 0.1,0.8 -0.4,0.6 -1.3,0.3 -2.3,-0.7 -0.9,-0.9 -1.1,-1.0 -2.5,-0.8 -2.2,0.3 -3.6,1.1 -3.7,2.4 -0.1,0.8 0.0,1.0 0.5,1.0 0.3,0 0.8,0.2 1.0,0.5 0.3,0.3 0.6,0.4 0.9,0.2 0.3,-0.1 1.3,-0.4 2.3,-0.5 1.0,-0.1 2.1,-0.4 2.6,-0.7 1.3,-0.7 2.4,-0.6 2.8,0.2 0.5,1.0 0.4,2.4 -0.3,3.3 -0.5,0.6 -0.5,0.9 -0.2,1.0 0.8,0.3 1.7,0.2 3.2,-0.3 z m -0.2,-2.5 c 0.1,-1.1 0.1,-1.7 -0.4,-2.3 -0.7,-1.1 -0.2,-1.8 0.8,-0.9 1.0,0.9 0.9,4.7 -0.2,4.7 -0.3,0 -0.4,-0.3 -0.2,-1.4 z m 20.1,-5.1 c 12.8,-3.2 13.2,-3.3 13.3,-4.1 0.1,-0.4 -0.1,-1.0 -0.3,-1.3 -0.4,-0.5 -1.7,-0.2 -14.3,2.9 l -13.9,3.4 -0.0,1.4 c -0.0,1.4 0.0,1.4 1.0,1.2 0.5,-0.1 6.9,-1.7 14.2,-3.5 z m 60.6,-15.1 c 1.3,-0.3 1.5,-1.0 0.9,-2.2 -0.3,-0.5 -0.9,-0.4 -8.9,1.5 -4.7,1.2 -8.6,2.1 -8.7,2.2 -0.1,0.1 -0.0,0.7 0.1,1.4 l 0.2,1.3 7.6,-1.9 c 4.2,-1.0 8.1,-2.0 8.8,-2.2 z"
       id="path5713"
       inkscape:connector-curvature="0" /></g></svg>